<svg width="76" height="80" viewBox="0 0 76 80" fill="none" xmlns="http://www.w3.org/2000/svg">
<path d="M0 35.3119H6.47588L20.5273 22.9711L33.8457 21.9936L24.926 26.7588H18.5723L3.42122 38.8553V43.0096L14.5402 48.3858L4.39871 46.4309L5.13183 54.0064L19.3055 53.5177L31.0354 38.2444L20.5273 55.717H3.90997C3.38049 49.5262 1.85723 36.7781 0 35.3119Z" fill="#A8905E"/>
<path d="M29.9357 7.08682C32.9904 3.17685 42.2765 -2.98135 54.9839 3.66559C49.8928 1.58842 38.5621 -0.63537 33.9678 7.08682H29.9357Z" fill="#A8905E"/>
<path d="M17.2283 13.1961L20.4051 10.7524C20.3644 8.10504 22.7756 2.24823 32.746 0C28.1029 0.448017 18.499 3.71447 17.2283 13.1961Z" fill="#A8905E"/>
<path d="M2.19936 32.3794L11.9743 25.4148L12.3408 22.3601L24.5595 9.89711L10.1415 21.7492L9.77492 25.4148L2.19936 32.3794Z" fill="#A8905E"/>
<path d="M30.6688 11.2412L42.1543 7.08682L41.5434 21.7492L39.955 11.6077L33.9678 13.8071L30.6688 11.2412Z" fill="#A8905E"/>
<path d="M60.3601 17.5949C66.6324 19.9571 77.0508 33.4302 68.5466 68.4244C70.1758 55.717 70.8193 27.7608 60.3601 17.5949Z" fill="#A8905E"/>
<path d="M61.3376 34.2122C63.4962 38.2851 64.8566 49.2656 53.0289 60.6045C47.7749 64.433 37.0714 73.4341 36.2894 78.8103C34.7841 76.2036 35.7557 67.9113 51.6849 55.5949C54.9025 53.1104 61.3376 45.3556 61.3376 34.2122Z" fill="#A8905E"/>
<path d="M53.8842 24.8039C57.5498 31.1983 59.8469 46.7486 39.7106 57.7942C19.5743 68.8399 11.3633 77.1404 9.77492 79.91C9.83168 76.3258 15.214 66.1029 36.2894 53.8842C42.4394 50.8296 54.5685 40.737 53.8842 24.8039Z" fill="#A8905E"/>
<path d="M48.3858 8.67524C57.1833 7.29046 75.0225 10.728 76 35.5563C75.6742 27.8992 69.744 13.0495 51.074 11.9743L48.3858 8.67524Z" fill="#A8905E"/>
<path d="M2.19936 77.4662C3.99142 74.2487 9.50611 66.8116 17.2283 62.8039C24.9505 58.7961 28.0214 54.1286 28.5916 52.2958C27.7771 53.314 23.7531 56.6457 14.1736 61.8264C11.3226 63.6999 4.93633 69.4508 2.19936 77.4662Z" fill="#A8905E"/>
</svg>
