<?xml version="1.0" standalone="no"?>
<!DOCTYPE svg PUBLIC "-//W3C//DTD SVG 20010904//EN"
 "http://www.w3.org/TR/2001/REC-SVG-20010904/DTD/svg10.dtd">
<svg version="1.0" xmlns="http://www.w3.org/2000/svg"
 width="747.000000pt" height="747.000000pt" viewBox="0 0 747.000000 747.000000"
 preserveAspectRatio="xMidYMid meet">
<metadata>
Created by potrace 1.14, written by Peter Selinger 2001-2017
</metadata>
<g transform="translate(0.000000,747.000000) scale(0.100000,-0.100000)"
fill="#000000" stroke="none">
<path d="M3108 7445 c-32 -7 -58 -10 -58 -8 0 2 -8 -1 -17 -6 -10 -5 -31 -11
-48 -14 -48 -8 -225 -67 -295 -99 -109 -49 -230 -113 -230 -120 0 -5 -5 -8
-11 -8 -9 0 -127 -75 -139 -89 -3 -3 -27 -24 -54 -45 -62 -50 -132 -120 -182
-182 -21 -27 -41 -51 -44 -54 -16 -14 -110 -173 -110 -184 0 -8 -7 -19 -15
-26 -8 -7 -15 -20 -15 -29 0 -9 -5 -22 -12 -29 -7 -7 -8 -12 -4 -12 5 0 4 -6
-2 -12 -11 -15 -48 -135 -57 -188 -3 -19 -10 -50 -15 -67 -12 -45 1 -48 46
-10 32 27 94 75 179 139 61 46 66 53 75 118 20 138 76 267 172 395 52 70 250
255 273 255 2 0 23 13 47 29 64 43 218 124 218 114 0 -4 4 -3 8 3 6 9 154 71
187 78 6 1 37 10 70 20 33 10 67 20 75 22 8 2 31 8 50 13 l35 9 -35 0 c-19 0
-61 -6 -92 -13z"/>
<path d="M4124 7390 c-3 -3 -18 -5 -32 -6 -170 -5 -486 -107 -677 -219 -33
-20 -70 -40 -82 -47 -13 -6 -23 -15 -23 -20 0 -4 -5 -8 -10 -8 -6 0 -16 -4
-23 -10 -7 -5 -41 -33 -77 -61 -60 -49 -160 -144 -204 -196 l-19 -23 191 0
190 0 48 68 c94 132 234 247 380 313 38 17 76 34 85 39 21 11 218 60 260 64
19 2 63 7 99 12 106 12 336 7 430 -10 14 -3 43 -7 65 -10 34 -4 78 -12 225
-42 14 -3 63 -16 110 -30 47 -13 92 -26 100 -28 8 -3 45 -16 83 -30 37 -14 71
-26 75 -26 15 1 -126 68 -218 105 -52 20 -104 41 -115 45 -20 8 -51 19 -60 20
-3 1 -19 6 -37 11 -143 45 -249 68 -393 85 -64 8 -365 11 -371 4z"/>
<path d="M4085 6793 c-11 -3 -24 -9 -30 -13 -10 -7 -108 -42 -130 -46 -6 -1
-33 -11 -60 -22 -53 -22 -412 -153 -430 -157 -5 -1 -21 -7 -35 -12 -60 -25
-308 -113 -316 -113 -6 0 -15 -5 -21 -11 -11 -11 14 -33 227 -193 30 -22 58
-45 61 -49 5 -7 39 3 124 38 11 4 25 9 30 10 6 2 96 35 200 74 224 85 207 80
211 61 1 -8 5 -24 7 -35 4 -19 20 -119 22 -140 1 -5 4 -28 8 -50 4 -22 9 -60
13 -85 3 -24 7 -47 9 -50 3 -4 10 -61 21 -150 1 -14 3 -25 4 -25 2 0 9 -36 15
-84 3 -25 7 -54 10 -65 2 -12 7 -43 11 -71 3 -27 8 -61 11 -75 2 -14 4 -35 4
-47 -1 -23 15 -41 17 -20 1 18 12 259 17 382 2 61 7 166 10 235 3 69 8 184 11
255 2 72 7 180 9 240 3 61 6 136 8 168 1 33 -2 57 -8 56 -5 -1 -19 -4 -30 -6z"/>
<path d="M4836 6673 c-2 -3 -30 -7 -62 -9 -31 -3 -61 -7 -66 -10 -5 -3 8 -25
29 -48 38 -43 75 -88 130 -157 15 -19 35 -42 43 -51 8 -9 21 -25 29 -36 10
-14 26 -21 45 -21 33 -1 131 -8 131 -11 0 -1 16 -3 35 -5 79 -8 153 -19 200
-29 59 -13 76 -17 95 -20 45 -9 155 -39 230 -64 44 -14 82 -27 85 -27 5 -2 52
-20 85 -34 140 -58 435 -219 443 -242 2 -5 9 -9 16 -9 7 0 23 -11 36 -25 13
-14 28 -25 32 -25 5 0 15 -6 22 -12 7 -7 39 -35 71 -63 70 -59 186 -175 235
-234 19 -23 47 -57 63 -74 33 -38 154 -213 191 -277 39 -68 146 -287 161 -330
1 -3 5 -13 9 -22 4 -9 9 -22 10 -30 2 -7 6 -20 9 -28 18 -42 55 -160 50 -160
-3 0 -1 -6 4 -12 6 -7 14 -31 18 -53 5 -22 9 -42 10 -45 3 -13 17 -88 21 -110
3 -14 7 -36 9 -50 3 -14 7 -45 10 -70 3 -24 8 -46 10 -48 6 -6 -9 198 -21 278
-3 19 -7 49 -9 65 -7 54 -17 109 -26 155 -6 25 -10 52 -11 60 0 8 -9 49 -20
90 -11 41 -21 84 -23 95 -9 56 -84 281 -130 390 -36 84 -100 213 -137 274 -21
34 -38 67 -38 71 0 5 -3 10 -7 12 -5 2 -26 30 -48 63 -22 33 -43 62 -47 63 -5
2 -8 8 -8 13 0 5 -8 17 -17 27 -10 10 -37 41 -60 69 -104 124 -292 292 -390
349 -18 10 -33 22 -33 26 0 4 -5 8 -11 8 -6 0 -29 13 -52 28 -36 24 -232 125
-247 128 -3 0 -18 6 -35 13 -16 8 -39 17 -50 22 -115 49 -368 110 -565 135
-57 8 -447 14 -454 7z"/>
<path d="M2445 6515 c-14 -14 -25 -23 -25 -19 0 5 -6 1 -12 -8 -7 -9 -47 -44
-88 -77 -41 -34 -95 -78 -119 -99 -24 -20 -55 -46 -69 -57 -78 -63 -154 -126
-166 -137 -8 -7 -29 -24 -47 -38 -18 -14 -43 -35 -56 -48 -13 -13 -23 -20 -23
-17 0 3 -8 -3 -18 -12 -9 -10 -40 -36 -67 -58 -28 -22 -52 -42 -55 -45 -3 -3
-27 -23 -55 -45 -27 -21 -54 -44 -60 -49 -5 -6 -44 -38 -85 -71 -41 -32 -80
-64 -86 -70 -6 -5 -25 -21 -43 -35 -18 -14 -43 -34 -55 -45 -12 -11 -44 -38
-71 -60 -83 -66 -87 -70 -101 -83 -8 -7 -15 -25 -15 -40 -3 -63 -8 -119 -13
-152 -3 -19 -8 -62 -10 -95 -5 -67 17 -41 -210 -250 -54 -49 -117 -107 -140
-128 -142 -132 -306 -281 -345 -314 -14 -13 -23 -23 -19 -23 9 0 105 67 126
87 7 7 16 13 20 13 4 0 19 10 34 23 15 12 50 38 78 57 28 19 95 68 150 108 54
39 103 72 109 72 5 0 11 3 13 8 2 4 13 14 24 22 12 8 81 58 154 110 72 52 139
100 148 105 46 28 63 53 68 96 2 24 6 58 8 74 2 17 7 59 10 94 6 62 8 65 74
132 37 37 229 233 427 435 198 202 424 433 503 512 78 79 142 145 142 148 0 9
-10 3 -35 -21z"/>
<path d="M5830 5810 c0 -5 9 -14 20 -20 11 -6 20 -15 20 -20 0 -5 15 -24 33
-42 52 -51 197 -256 197 -277 0 -5 4 -11 9 -13 8 -3 141 -259 141 -272 0 -3
12 -31 26 -63 15 -31 27 -62 28 -67 1 -6 4 -15 7 -21 6 -9 29 -75 36 -100 1
-5 18 -57 36 -115 39 -118 64 -203 71 -240 3 -14 15 -65 26 -115 12 -49 23
-101 25 -115 2 -14 4 -25 5 -25 3 0 31 -147 36 -190 2 -16 8 -52 13 -80 6 -27
12 -69 15 -92 3 -22 7 -52 10 -65 3 -12 8 -45 10 -73 3 -27 8 -61 10 -75 2
-14 7 -59 11 -100 3 -41 8 -93 10 -115 4 -36 12 -124 20 -230 21 -270 27
-1032 11 -1335 -5 -91 -10 -193 -10 -227 -1 -35 -3 -63 -6 -63 -3 0 -5 -15 -6
-33 -1 -59 -18 -259 -29 -347 -4 -25 -8 -65 -10 -90 -2 -25 -7 -61 -10 -80 -4
-19 -4 -32 0 -28 6 6 38 138 51 208 3 14 7 33 10 42 3 10 7 28 10 40 9 48 13
70 18 86 3 9 7 35 11 57 3 22 10 56 15 75 5 19 12 51 14 70 5 34 11 66 21 120
16 80 47 265 60 360 4 25 9 61 12 80 3 19 7 46 8 60 2 14 4 25 5 25 0 0 4 27
7 60 7 78 11 110 13 110 0 0 3 20 4 45 2 25 7 81 11 125 33 361 38 883 10
1150 -3 28 -8 75 -11 105 -11 104 -15 138 -40 280 -21 128 -24 142 -36 185 -5
22 -12 49 -14 60 -14 85 -108 383 -150 480 -10 22 -18 42 -19 45 -2 12 -108
220 -135 265 -17 28 -36 60 -42 73 -6 12 -15 22 -20 22 -4 0 -8 5 -8 10 0 9
-35 65 -50 80 -3 3 -30 34 -59 70 -30 36 -87 96 -125 133 -74 70 -253 197
-280 197 -8 0 -18 5 -21 10 -8 13 -25 13 -25 0z"/>
<path d="M3295 5412 c-4 -4 -25 -8 -48 -8 -38 -2 -109 -6 -272 -19 -33 -2 -96
-7 -140 -10 -44 -3 -105 -8 -135 -10 -30 -2 -93 -6 -140 -9 -47 -3 -101 -8
-120 -10 -31 -4 -114 -10 -282 -21 -48 -3 -73 -17 -144 -82 -17 -15 -60 -53
-95 -83 -34 -30 -75 -66 -90 -80 -15 -14 -51 -45 -79 -70 -29 -25 -63 -54 -75
-65 -13 -11 -51 -45 -85 -75 -35 -30 -68 -59 -74 -65 -6 -5 -83 -73 -171 -150
-88 -77 -162 -142 -165 -145 -3 -3 -39 -34 -80 -70 -41 -36 -80 -69 -86 -75
-6 -5 -39 -35 -73 -65 -35 -30 -77 -67 -93 -81 -17 -15 -36 -31 -43 -37 -8 -7
-117 -10 -309 -10 -263 1 -341 -4 -298 -19 24 -9 97 -178 117 -273 1 -8 8 -35
15 -60 7 -25 14 -56 16 -70 2 -14 7 -36 11 -50 3 -14 7 -32 9 -40 2 -8 6 -31
10 -50 10 -47 19 -98 30 -170 2 -8 5 -24 7 -35 5 -25 20 -115 22 -135 1 -8 5
-40 10 -70 4 -30 9 -62 10 -70 1 -8 5 -42 9 -75 4 -33 10 -73 12 -90 3 -16 7
-41 9 -55 2 -14 6 -52 10 -85 3 -33 8 -78 11 -100 5 -41 9 -74 19 -185 4 -36
8 -76 10 -90 2 -14 7 -59 10 -100 4 -41 9 -77 12 -80 2 -3 353 -5 778 -5 l773
-1 273 456 c150 250 276 457 279 460 9 9 51 84 57 103 3 9 9 17 13 17 4 0 15
18 25 40 10 22 22 40 27 40 4 0 8 6 8 14 0 8 6 21 13 28 7 7 20 28 28 46 7 17
17 32 21 32 5 0 8 7 8 15 0 8 5 15 10 15 6 0 10 4 10 9 0 5 31 60 69 123 126
205 138 226 127 222 -6 -2 -27 -27 -46 -56 -19 -28 -41 -57 -48 -64 -7 -8 -41
-51 -75 -97 -34 -45 -68 -89 -75 -97 -6 -8 -55 -71 -108 -140 -52 -69 -101
-133 -109 -143 -8 -9 -15 -19 -15 -21 0 -2 -9 -15 -20 -28 -11 -12 -101 -129
-200 -258 -99 -129 -186 -242 -193 -250 -6 -9 -34 -45 -62 -80 -27 -36 -53
-66 -57 -68 -5 -2 -8 -9 -8 -15 0 -7 -14 -26 -30 -44 -17 -18 -30 -36 -30 -42
0 -5 -8 -10 -17 -9 -10 0 -90 -3 -178 -6 -88 -4 -216 -8 -285 -11 -69 -2 -204
-7 -300 -10 -96 -4 -231 -8 -300 -10 -69 -2 -127 -4 -130 -5 -13 -4 -112 -2
-116 3 -5 4 -8 31 -19 162 -4 44 -9 91 -10 105 -2 14 -6 52 -10 85 -7 71 -12
123 -20 225 -4 41 -8 85 -10 98 -3 18 0 22 13 18 9 -3 33 -8 52 -11 19 -3 46
-8 60 -10 14 -3 36 -7 50 -10 14 -3 39 -8 55 -11 17 -4 39 -8 50 -10 11 -2 56
-10 99 -19 44 -8 91 -17 105 -20 14 -3 40 -8 56 -11 17 -3 39 -7 50 -9 28 -5
74 -14 110 -22 17 -4 32 -7 35 -8 57 -12 86 -17 113 -20 17 -3 47 -9 65 -14
17 -5 32 -8 32 -5 0 2 -71 39 -157 80 -203 98 -350 169 -598 289 -110 53 -219
106 -241 116 l-41 20 -1 191 c0 215 -9 191 98 273 36 27 74 57 85 67 11 9 63
51 115 93 52 41 102 81 110 88 8 7 33 26 55 42 21 17 47 37 55 45 37 34 71 60
78 60 4 0 14 8 23 18 8 9 30 28 49 42 18 14 38 30 44 35 6 6 31 26 56 45 25
19 50 39 56 45 6 5 26 21 44 35 18 14 45 35 59 47 14 12 67 54 116 93 50 39
97 76 105 83 8 7 38 30 65 52 28 22 52 42 55 45 3 3 21 17 40 31 19 15 46 36
60 48 14 11 30 24 35 29 6 4 143 7 305 7 l294 0 91 48 c49 26 115 60 145 75
30 15 59 30 65 35 9 7 81 45 197 104 27 14 50 29 54 34 3 5 14 9 25 9 10 0 19
4 19 8 0 5 17 16 38 25 64 28 180 92 183 101 5 11 -27 17 -36 8z"/>
<path d="M5220 5140 c-5 -174 -11 -342 -14 -365 -2 -16 -6 -55 -10 -85 -3 -30
-8 -65 -10 -76 -3 -12 -7 -37 -10 -55 -3 -19 -8 -45 -11 -59 -3 -14 -8 -38
-11 -54 -2 -16 -7 -32 -9 -36 -2 -4 -7 -22 -10 -41 -9 -49 -46 -168 -93 -294
-33 -89 -119 -282 -137 -305 -6 -8 -20 -34 -31 -57 -10 -24 -22 -43 -26 -43
-5 0 -8 -6 -8 -12 -1 -12 -66 -118 -90 -145 -5 -7 -10 -15 -10 -18 0 -5 -39
-64 -50 -75 -3 -3 -32 -41 -64 -84 -113 -152 -310 -363 -460 -491 -32 -27 -63
-55 -69 -60 -7 -6 -32 -26 -57 -45 -25 -19 -47 -37 -50 -40 -3 -3 -34 -26 -70
-51 -36 -24 -69 -47 -75 -52 -32 -24 -104 -68 -211 -128 -67 -37 -185 -106
-263 -153 -79 -47 -146 -86 -151 -86 -5 0 -10 -4 -12 -8 -1 -4 -52 -39 -113
-77 -60 -39 -141 -91 -180 -118 -38 -26 -78 -53 -88 -60 -11 -6 -45 -31 -78
-54 -32 -24 -61 -43 -65 -43 -3 0 -11 -6 -18 -12 -7 -7 -25 -22 -40 -33 -44
-31 -279 -208 -301 -226 -69 -57 -226 -189 -259 -219 -109 -97 -179 -164 -266
-250 -102 -103 -220 -228 -220 -235 0 -2 -12 -18 -28 -34 -72 -79 -121 -144
-219 -291 -85 -128 -96 -148 -137 -234 -46 -97 -83 -207 -89 -263 -3 -23 -8
-47 -12 -52 -3 -6 -2 -11 3 -11 5 0 26 26 48 57 21 31 55 75 74 97 63 72 294
300 365 361 39 33 72 62 75 65 3 3 30 25 60 50 66 54 99 82 114 95 6 6 29 23
51 39 22 17 42 33 45 36 3 3 59 46 125 95 66 49 122 91 125 94 12 13 70 51 79
51 5 0 11 4 13 8 3 7 61 50 231 167 31 22 65 45 75 50 9 6 71 46 137 89 95 63
269 172 405 256 126 77 183 110 190 110 5 0 10 4 12 8 5 12 532 312 548 312 6
0 10 4 10 8 0 4 16 14 35 21 19 7 35 17 35 22 0 5 5 9 12 9 32 0 425 261 534
355 7 6 34 28 60 50 129 106 304 278 304 297 0 5 5 6 10 3 6 -3 10 -2 10 3 0
4 13 24 30 43 38 44 40 47 75 94 17 22 33 42 36 45 10 8 103 150 134 205 16
28 32 52 35 55 22 19 156 339 176 420 2 8 10 39 18 68 8 28 12 52 10 52 -3 0
0 8 5 18 5 10 12 38 15 62 3 25 8 56 11 70 24 114 23 483 -1 590 -3 14 -8 43
-11 65 -2 21 -7 43 -10 48 -3 4 -7 23 -9 40 -3 18 -9 43 -14 57 -5 14 -15 45
-21 70 -15 55 -14 52 -22 70 -14 33 -30 76 -32 85 -6 25 -85 178 -85 165z"/>
<path d="M5909 4210 c-1 -36 -2 -78 -4 -95 -5 -71 -16 -182 -20 -205 -9 -63
-16 -107 -21 -130 -2 -14 -7 -37 -9 -51 -7 -37 -54 -221 -62 -239 -3 -8 -7
-19 -9 -25 -1 -5 -9 -29 -18 -53 -8 -23 -15 -43 -15 -45 1 -3 -19 -53 -53
-136 -66 -159 -201 -403 -279 -502 -16 -20 -29 -40 -29 -43 0 -3 -9 -16 -19
-28 -10 -13 -46 -57 -79 -98 -80 -100 -234 -249 -337 -325 -22 -17 -42 -32
-45 -35 -3 -3 -27 -24 -55 -45 -52 -42 -76 -62 -113 -93 -13 -11 -40 -34 -62
-52 -21 -17 -51 -43 -67 -58 -16 -15 -71 -65 -122 -112 -152 -139 -328 -319
-430 -440 -12 -14 -33 -38 -47 -55 -14 -16 -59 -75 -100 -130 -40 -55 -78
-105 -84 -112 -31 -38 -200 -336 -205 -363 -3 -15 -29 -87 -35 -95 -8 -13 -36
-106 -45 -156 -24 -125 -22 -252 4 -322 6 -14 8 -27 5 -30 -2 -2 2 -10 11 -17
13 -11 17 -8 15 13 -2 12 54 157 71 187 5 8 14 26 19 39 17 38 141 221 151
221 5 0 9 5 9 11 0 34 341 399 549 589 51 47 101 92 110 101 80 77 385 326
556 456 115 86 187 156 320 308 33 38 69 78 80 90 11 12 25 29 30 38 6 8 35
48 66 88 136 178 289 445 353 619 16 41 32 84 37 95 11 27 23 69 32 108 1 6 5
17 9 22 5 9 10 30 22 90 3 11 9 40 14 65 12 50 22 113 29 180 8 78 10 353 2
390 -4 19 -10 55 -12 80 -10 89 -73 299 -104 345 -11 17 -13 12 -14 -45z"/>
<path d="M2814 2547 c-47 -49 -124 -117 -134 -117 -4 0 -10 -4 -12 -8 -5 -13
-186 -143 -318 -229 -36 -23 -69 -46 -75 -50 -5 -5 -80 -51 -165 -102 -85 -52
-165 -100 -177 -108 -13 -7 -24 -12 -26 -11 -2 2 -20 -9 -40 -24 -19 -16 -39
-28 -43 -28 -3 0 -40 -20 -80 -45 -41 -24 -74 -41 -74 -37 0 4 -4 2 -8 -3 -4
-6 -32 -23 -62 -39 -148 -78 -376 -263 -539 -440 -20 -21 -53 -56 -73 -78 -20
-21 -49 -55 -65 -75 -15 -20 -53 -68 -84 -107 -56 -70 -189 -261 -189 -271 0
-2 -15 -28 -33 -57 -19 -29 -53 -91 -76 -137 -23 -47 -46 -90 -51 -96 -5 -6
-11 -20 -13 -31 -2 -10 -9 -29 -16 -42 -7 -13 -18 -40 -26 -60 -7 -20 -20 -55
-29 -77 -21 -52 -13 -41 108 142 52 78 103 150 113 161 10 12 23 27 28 34 78
101 109 138 116 138 5 0 9 4 9 10 0 18 241 269 380 395 84 77 264 215 370 285
52 34 106 70 120 79 14 9 59 34 100 56 41 21 77 41 80 44 3 3 25 16 50 28 65
32 124 67 128 76 2 4 8 7 13 7 5 0 32 16 59 35 27 19 54 35 58 35 5 0 17 9 27
20 10 11 24 20 31 20 7 0 14 3 16 8 2 4 30 27 63 52 33 25 65 50 72 55 6 6 33
28 59 50 195 164 388 402 443 548 14 35 3 33 -35 -6z"/>
</g>
</svg>
